<?xml version="1.0" encoding="UTF-8"?>
<!DOCTYPE svg PUBLIC "-//W3C//DTD SVG 1.1//EN" "http://www.w3.org/Graphics/SVG/1.1/DTD/svg11.dtd">
<svg version="1.1" xmlns="http://www.w3.org/2000/svg" xmlns:xlink="http://www.w3.org/1999/xlink" x="0" y="0" width="80.677" height="42.284" viewBox="0, 0, 80.677, 42.284">
  <g id="Layer_1">
    <path d="M80.025,41.989 C79.468,42.046 79.004,42.123 78.537,42.136 C67.808,42.426 4.156,42.259 1.662,41.92 C0.346,38.85 -0.32,35.569 0.15,32.204 C0.632,28.751 3.205,25.894 7.617,26.528 C9.43,26.788 11.213,27.24 13.008,27.621 C13.619,27.751 14.219,27.931 14.699,28.056 C15.306,27.751 15.232,27.312 15.242,26.936 C15.265,25.977 15.246,25.017 15.258,24.058 C15.348,17.621 17.256,11.786 21.201,6.688 C23.502,3.715 26.459,1.57 30.123,0.537 C33.041,-0.285 35.977,-0.095 38.873,0.65 C42.592,1.607 45.83,3.4 48.369,6.353 C49.488,7.652 50.094,9.22 50.779,10.747 C51.134,11.54 51.427,12.361 51.797,13.289 C52.363,13.157 52.807,13.066 53.244,12.949 C54.861,12.516 56.459,12 58.094,11.655 C60.282,11.192 62.383,11.684 64.391,12.564 C66.705,13.577 68.258,15.26 69.08,17.705 C69.955,20.311 70.31,22.987 70.555,25.694 C70.633,26.56 70.676,27.43 70.739,28.345 C71.762,28.599 72.694,28.784 73.596,29.063 C76.473,29.952 78.801,31.549 79.953,34.443 C80.936,36.903 80.875,39.404 80.025,41.989 z" fill="#FFFFFF"/>
  </g>
</svg>
